PathFileType	4	(X/Y/Z)	C:\Users\willi\Desktop\Data_PaperCallum_v2\17_Akif\Gait04\marker_experimental_temp.trc
DataRate	CameraRate	NumFrames	NumMarkers	Units	OrigDataRate	OrigDataStartFrame	OrigNumFrames
100.000000	100.000000	8	27	mm	100.000000	67	181
Frame#	Time	C7			T10			Clav			Sternum			Right_Back			PCL_CRAN			PCL_RECHTS			PCL_LINKS			RCL_UL_CRAN			RCL_UL_POST			RCL_UL_ANT			RCL_LL_CRAN			RCL_LL_POST			RCL_LL_ANT			Right_Heel			Right_Toe			Right_M5			LCL_UL_CRAN			LCL_UL_POST			LCL_UL_ANT			LCL_LL_CRAN			LCL_LL_POST			LCL_LL_ANT			Left_Heel			Left_Toe			Left_M5			*26			
		X1	Y1	Z1	X2	Y2	Z2	X3	Y3	Z3	X4	Y4	Z4	X5	Y5	Z5	X6	Y6	Z6	X7	Y7	Z7	X8	Y8	Z8	X9	Y9	Z9	X10	Y10	Z10	X11	Y11	Z11	X12	Y12	Z12	X13	Y13	Z13	X14	Y14	Z14	X15	Y15	Z15	X16	Y16	Z16	X17	Y17	Z17	X18	Y18	Z18	X19	Y19	Z19	X20	Y20	Z20	X21	Y21	Z21	X22	Y22	Z22	X23	Y23	Z23	X24	Y24	Z24	X25	Y25	Z25	X26	Y26	Z26	X27	Y27	Z27	

68	0.67	627.7210693359374	1382.475341796875	135.1011657714843	650.4927978515624	1164.34423828125	135.7942352294922	480.1971435546874	1317.781372070313	145.568374633789	413.4335021972656	1157.550659179688	170.6680297851562	656.9779052734374	1313.687377929688	30.40194702148434	639.2006835937499	1000.262512207031	122.1122283935546	645.9793090820311	941.7821655273438	95.77573394775386	654.9331054687499	940.572998046875	145.401382446289	452.9480590820312	711.2637939453125	-28.06391716003421	452.8512573242187	646.51025390625	-22.60137748718265	405.6315917968749	666.8349609375	-20.85329246520999	379.3015441894531	367.8070068359375	15.72487163543699	387.4682922363281	302.8752746582031	13.01836204528806	338.6649169921875	316.5314025878906	21.46731758117674	357.122314453125	21.37445449829104	105.0495071411133	167.8339385986328	63.12685012817384	106.2497177124023	201.2051696777344	29.71849060058595	52.61367416381835	612.9898681640625	740.0577392578125	314.7498168945312	641.2888793945313	681.7514038085938	304.7295227050781	593.5759887695313	677.806884765625	318.7595214843749	774.4323120117188	397.2255249023438	282.9538269042968	829.5917358398438	360.4113464355469	280.0263977050781	787.2600708007813	333.7978210449219	275.9421386718749	1006.616088867188	144.8222656250001	184.3606414794921	856.0941772460938	29.12058067321783	185.7611541748046	908.8644409179688	16.01230049133306	239.2903442382812	-88.03970336914087	726.496337890625	-3209.570556640625	
69	0.68	612.8594360351561	1382.87109375	133.932388305664	634.9330444335936	1164.709350585938	135.1137390136718	465.1313781738281	1318.690551757813	144.9575042724609	397.8384399414062	1158.756103515625	170.4068450927734	641.4923706054686	1313.713012695313	29.11793708801266	623.0844726562499	1000.851989746094	122.0760421752929	629.7628173828124	942.4828491210938	95.41588592529293	638.5684204101561	940.9578247070313	145.0249938964843	436.8132629394531	712.8857421875	-28.69691276550296	436.8100280761718	648.263671875	-22.68461608886722	389.4955749511718	668.564453125	-20.97215080261233	366.2387084960938	368.4543151855469	15.00674152374265	375.0315856933594	304.1478576660156	11.2768859863281	326.74951171875	316.3367919921875	21.41097640991209	356.6163024902344	22.58151817321779	104.3412780761718	164.5299682617188	55.7513542175293	108.5612106323242	199.2282257080078	23.88364028930665	53.91341400146483	594.6990966796875	739.3973388671875	314.6920471191406	622.4121704101563	680.77783203125	305.0478210449218	574.7152099609375	677.3146362304688	319.1339111328124	755.8011474609375	398.0853576660157	286.0775756835937	812.168212890625	362.9244689941407	282.3636169433593	770.8025512695313	335.1223449707032	279.1713562011718	993.6241455078125	155.9378814697266	185.8611145019531	855.8379516601563	29.69867706298833	185.9025878906249	907.85595703125	19.4562549591065	239.0930633544921	-88.03981781005884	726.4961547851563	-3209.569580078125	
70	0.6900000000000001	598.0416870117186	1383.534301757813	132.7780609130859	619.4577026367186	1165.3515625	134.4356231689453	450.1420898437499	1319.85546875	144.397232055664	382.3381042480468	1160.214721679688	170.1967620849609	626.0184936523436	1314.022583007813	27.80432891845699	607.0821533203124	1001.700744628906	122.033203125	613.6600952148436	943.44091796875	95.06089019775386	622.3081665039061	941.6015014648438	144.6612701416015	421.2089233398437	714.59423828125	-29.41726493835452	421.5072631835937	650.0590209960938	-22.958948135376	374.0848388671874	670.1986083984375	-21.43401145935061	353.9581909179688	369.1842041015625	14.19158267974851	363.27490234375	305.5808715820313	9.240916252136207	315.6095581054688	316.2605590820313	21.18453216552733	356.1935729980469	23.85130882263186	103.5180206298828	161.7422332763672	49.38769149780274	110.1952133178711	197.7112274169922	18.92958259582521	54.59208297729491	576.0328979492188	738.8389892578125	314.6590881347656	602.9430541992188	679.8036499023438	305.4275207519531	555.2738037109375	676.98291015625	319.5741577148437	735.724853515625	398.9326782226563	289.3283996582031	793.1065063476563	365.3690795898438	284.8132934570312	752.65576171875	336.3849792480469	282.6728515624999	978.7169799804688	167.6061706542969	187.3135070800781	854.4874877929688	30.9818954467774	186.2435302734374	905.5261840820313	24.20267486572271	239.2245178222656	-88.03993988037134	726.4959106445313	-3209.568603515625	
71	0.7000000000000001	583.2784423828124	1384.449951171875	131.6444091796875	604.0826416015624	1166.255615234375	133.7528381347656	435.2413330078124	1321.25634765625	143.8924255371093	366.9525756835937	1161.90087890625	170.040786743164	610.5676879882811	1314.607421875	26.46698570251461	591.2169799804686	1002.789611816406	121.9653091430664	597.6945190429686	944.6337890625	94.70202636718746	606.1811523437499	942.49072265625	144.3018646240234	406.1837158203124	716.322998046875	-30.19757080078127	406.9746398925781	651.8322143554688	-23.4048767089844	359.4352722167968	671.6693725585938	-22.20424652099612	342.58154296875	369.9275817871094	13.33566093444822	352.4883422851563	307.0052490234375	7.16302728652952	305.3867797851563	316.2176513671875	20.84311103820799	355.7675476074219	25.07748985290529	102.6693038940429	159.41650390625	44.16092681884766	111.2601013183594	196.5481872558594	14.95989131927491	54.76438522338866	557.0587158203125	738.4150390625	314.6599121093749	582.95751953125	678.869384765625	305.8731994628906	535.3323974609375	676.8482666015625	320.0884704589843	714.227783203125	399.7847290039063	292.6692504882812	772.4130249023438	367.7356872558594	287.3762817382812	732.7944946289063	337.5745544433594	286.3693542480468	962.00244140625	179.6469268798829	188.7363891601562	851.5436401367188	33.11472320556646	186.9048156738281	901.4158935546875	30.31390571594244	239.7894897460937	-88.0400772094729	726.4957275390625	-3209.56787109375	
72	0.71	568.5792236328124	1385.598999023438	130.5370483398437	588.8219604492186	1167.401489257813	133.0592193603515	420.4396057128906	1322.86962890625	143.4468078613281	351.6993408203124	1163.785278320313	169.939956665039	595.1508789062499	1315.454345703125	25.11166954040524	575.5089111328124	1004.095520019531	121.8576583862304	581.8865356445311	946.0352172851563	94.33351135253902	590.2127685546874	943.6082763671875	143.9411468505859	391.7622680664062	718.0181274414063	-31.00086021423342	393.2112121582031	653.5369262695313	-23.98249435424807	345.5496520996093	672.9332885742188	-23.21263885498049	332.21728515625	370.6228637695313	12.49418163299559	342.9283752441406	308.2714233398438	5.308202266693094	296.2049865722656	316.1331481933594	20.44164276123045	355.3120422363281	26.17391586303713	101.8783950805664	157.5123901367188	40.09168243408204	111.8858489990234	195.6677398681641	11.98944377899171	54.56726074218749	537.84521484375	738.1583862304688	314.7030029296874	562.5419921875	678.0245971679688	306.3862609863281	514.9812622070313	676.949462890625	320.6802062988281	691.3681030273438	400.6647644042969	296.0588989257812	750.1466674804688	370.0300903320313	290.0471191406249	711.2596435546875	338.7010498046876	290.1549682617187	943.63916015625	191.8334655761719	190.1361236572265	846.4926147460938	36.18314361572271	188.0060729980468	895.080810546875	37.73803710937506	240.8684692382812	-88.04022216796899	726.4955444335938	-3209.5673828125	
73	0.72	553.9525756835936	1386.95849609375	129.4609832763672	573.6874389648436	1168.764892578125	132.349853515625	405.7457580566406	1324.668334960938	143.0630187988281	336.5928344726562	1165.835693359375	169.893325805664	579.7780761718749	1316.546020507813	23.74405288696286	559.9741210937499	1005.592712402344	121.6999588012695	566.2532958984374	947.6163330078125	93.95286560058591	574.4244384765624	944.9335327148438	143.5765228271484	377.9473876953124	719.6392822265625	-31.7840156555176	380.1909790039062	655.1444702148438	-24.63782882690432	332.4043579101562	673.9693603515625	-24.36346435546877	322.94775390625	371.2229919433594	11.71737098693846	334.76806640625	309.27392578125	3.902645111083964	288.1493225097656	315.9549255371094	20.02908706665037	354.8391418457031	27.08461380004885	101.2118606567383	155.9922180175781	37.11172103881837	112.2063064575195	195.0195007324219	9.956201553344739	54.14178085327147	518.459716796875	738.1012573242188	314.7961730957031	541.7901000976563	677.3258056640625	306.9653625488281	494.3166198730468	677.3253784179688	321.3480224609374	667.2366333007813	401.6004028320313	299.4533386230468	726.4169921875	372.2725524902344	292.8099060058593	688.158203125	339.7981567382813	293.9058837890624	923.8123779296875	203.9004058837891	191.5019989013671	838.8507690429688	40.1942863464356	189.6485137939453	886.1311645507813	46.29845046997076	242.5058441162109	-88.04038238525415	726.4954223632813	-3209.56689453125	
74	0.73	539.4055786132811	1388.502319335938	128.4205627441406	558.6884765624999	1170.318237304688	131.6214294433593	391.1667480468749	1326.622680664063	142.7425079345703	321.6443176269531	1168.017944335938	169.8981018066406	564.4585571289061	1317.860717773438	22.36975097656246	544.6248779296874	1007.2529296875	121.4867858886718	550.8085327148436	949.34619140625	93.56118011474607	558.8333129882811	946.4428100585938	143.2086944580078	364.7233276367187	721.1594848632813	-32.50195312500002	367.8702087402343	656.6416015625	-25.31028747558596	319.9563293457031	674.7758178710938	-25.54830741882326	314.8181457519531	371.7001342773438	11.0470972061157	328.0668640136719	309.9654235839844	3.091147661209086	281.252197265625	315.6606140136719	19.64454078674315	354.3787841796875	27.7874393463135	100.7127380371093	154.8145446777344	35.08614730834962	112.3437576293945	194.5635070800781	8.738806724548352	53.6167640686035	498.9660644531249	738.2724609375	314.9465332031249	520.7984008789063	676.83203125	307.6065368652343	473.4360046386718	678.011962890625	322.0864562988281	641.9531860351563	402.6213684082032	302.8074645996093	701.3777465820313	374.4936523437501	295.6349487304687	663.6557006835938	340.9201354980469	297.4962768554687	902.7094116210938	215.555404663086	192.8066101074218	828.2081298828125	45.06552124023442	191.8985290527343	874.2648315429688	55.70001983642584	244.7030487060546	-88.04055786132837	726.4952392578125	-3209.56640625	
75	0.74	524.9438476562499	1390.20166015625	127.4195556640625	543.8322143554686	1172.031127929688	130.8725280761718	376.7074584960937	1328.700927734375	142.485610961914	306.8615417480468	1170.296752929688	169.94970703125	549.2005004882811	1319.373779296875	20.99434852600094	529.4697875976561	1009.04638671875	121.2178421020508	535.5626831054686	951.1928100585938	93.16319274902341	543.4522705078124	948.1098022460938	142.8417358398437	352.0597534179687	722.5638427734375	-33.11202239990237	356.1935119628906	658.02783203125	-25.93998336791994	308.1496276855468	675.3660278320313	-26.65959930419924	307.8299560546875	372.0475463867188	10.51440429687498	322.764404296875	310.3582763671875	2.912997961044292	275.4881896972656	315.2582702636719	19.3154773712158	353.9628295898438	28.29201316833498	100.3982315063476	153.9320220947266	33.83892822265626	112.3977661132812	194.263671875	8.177676200866712	53.09640884399413	479.4223327636718	738.6961059570313	315.1604003906249	499.6615295410156	676.5999145507813	308.3040466308593	452.4338684082031	679.0388793945313	322.886962890625	615.661376953125	403.7564697265626	306.0767211914062	675.2161865234375	376.7273559570313	298.4774169921874	637.9609985351563	342.1335449218751	300.8162231445312	880.499755859375	226.4936218261719	194.0116271972656	814.2642822265625	50.6255493164063	194.7755889892578	859.2899169921875	65.55190277099615	247.4180908203124	-88.04074096679712	726.4951171875	-3209.56640625	
